HIERARCHY
ROOT Pelvis
{
	OFFSET 0.000000 0.000000 0.000000
	CHANNELS 6 Xposition Yposition Zposition Zrotation Yrotation Xrotation 
	JOINT Left_hip
	{
		OFFSET 0.067986 -0.089946 -0.007639
		CHANNELS 3 Zrotation Yrotation Xrotation
		JOINT Left_knee
		{
			OFFSET 0.036308 -0.388288 -0.004016
			CHANNELS 3 Zrotation Yrotation Xrotation
			JOINT Left_ankle
			{
				OFFSET -0.012264 -0.413250 -0.042878
				CHANNELS 3 Zrotation Yrotation Xrotation
				JOINT Left_foot
				{
					OFFSET 0.024043 -0.058563 0.118570
					CHANNELS 3 Zrotation Yrotation Xrotation
					End Site
					{
						OFFSET 0.000000 0.000000 0.000000
					}
				}
			}
		}
	}
	JOINT Right_hip
	{
		OFFSET -0.065648 -0.089374 -0.003858
		CHANNELS 3 Zrotation Yrotation Xrotation
		JOINT Right_knee
		{
			OFFSET -0.042132 -0.395021 -0.006361
			CHANNELS 3 Zrotation Yrotation Xrotation
			JOINT Right_ankle
			{
				OFFSET 0.014805 -0.413264 -0.041054
				CHANNELS 3 Zrotation Yrotation Xrotation
				JOINT Right_foot
				{
					OFFSET -0.021758 -0.049013 0.121832
					CHANNELS 3 Zrotation Yrotation Xrotation
					End Site
					{
						OFFSET 0.000000 0.000000 0.000000
					}
				}
			}
		}
	}
	JOINT Spine1
	{
		OFFSET -0.002755 0.104406 -0.022277
		CHANNELS 3 Zrotation Yrotation Xrotation
		JOINT Spine2
		{
			OFFSET 0.004136 0.129393 -0.002186
			CHANNELS 3 Zrotation Yrotation Xrotation
			JOINT Spine3
			{
				OFFSET 0.001906 0.049304 0.025578
				CHANNELS 3 Zrotation Yrotation Xrotation
				JOINT Neck
				{
					OFFSET -0.004620 0.210958 -0.044063
					CHANNELS 3 Zrotation Yrotation Xrotation
					JOINT Head
					{
						OFFSET 0.003833 0.067393 0.052435
						CHANNELS 3 Zrotation Yrotation Xrotation
						End Site
						{
							OFFSET 0.000000 0.000000 0.000000
						}
					}
				}
				JOINT Left_collar
				{
					OFFSET 0.070771 0.116689 -0.037192
					CHANNELS 3 Zrotation Yrotation Xrotation
					JOINT Left_shoulder
					{
						OFFSET 0.080652 0.031596 -0.005617
						CHANNELS 3 Zrotation Yrotation Xrotation
						JOINT Left_elbow
						{
							OFFSET 0.262654 -0.015020 -0.027939
							CHANNELS 3 Zrotation Yrotation Xrotation
							JOINT Left_wrist
							{
								OFFSET 0.250438 0.010062 -0.000990
								CHANNELS 3 Zrotation Yrotation Xrotation
								JOINT Left_palm
								{
									OFFSET 0.081198 -0.010037 -0.013706
									CHANNELS 3 Zrotation Yrotation Xrotation
									End Site
									{
										OFFSET 0.000000 0.000000 0.000000
									}
								}
							}
						}
					}
				}
				JOINT Right_collar
				{
					OFFSET -0.072972 0.115556 -0.040762
					CHANNELS 3 Zrotation Yrotation Xrotation
					JOINT Right_shoulder
					{
						OFFSET -0.082917 0.031841 -0.006673
						CHANNELS 3 Zrotation Yrotation Xrotation
						JOINT Right_elbow
						{
							OFFSET -0.252882 -0.013790 -0.020410
							CHANNELS 3 Zrotation Yrotation Xrotation
							JOINT Right_wrist
							{
								OFFSET -0.255570 0.009163 -0.005138
								CHANNELS 3 Zrotation Yrotation Xrotation
								JOINT Right_palm
								{
									OFFSET -0.080804 -0.007282 -0.010415
									CHANNELS 3 Zrotation Yrotation Xrotation
									End Site
									{
										OFFSET 0.000000 0.000000 0.000000
									}
								}
							}
						}
					}
				}
			}
		}
	}
}
MOTION
Frames: 5
Frame Time: 0.100000
-0.446661 -0.127559 0.725272 175.500423 12.379883 19.760698 10.152214 3.012150 -57.549427 -7.255752 9.941281 24.805682 -5.996646 3.587157 -3.853641 9.137396 12.278706 -1.515064 -12.073449 -7.756328 -50.728387 5.186591 -1.679222 23.622559 18.706022 -0.633458 -3.909579 -20.877106 5.529724 -1.637864 4.071130 0.787030 51.731118 -4.253427 -1.801374 -3.176705 2.885350 1.949872 -0.829014 -11.027781 -0.069853 -25.382367 7.917300 -5.358971 -15.599648 -0.783735 -38.189788 -9.748191 -35.217150 -35.613501 4.329410 18.110256 -37.112485 -38.460671 12.043171 -2.064803 -37.334487 -2.666037 -1.121417 5.818683 -6.563728 41.655846 -8.099211 25.016870 39.751237 -5.673024 -13.102371 31.533916 -33.184899 -9.876590 0.637689 -13.904021 6.231164 7.091217 -7.617977 
-0.443394 -0.131455 0.731538 175.360294 11.491966 14.416771 10.074254 2.830062 -50.119180 -7.062394 8.554578 22.926792 -5.843612 4.005977 -4.384861 9.181099 12.409436 -2.095994 -11.281791 -6.784135 -43.632215 5.152926 -0.680874 21.144357 17.766751 -0.139387 -3.565281 -19.254442 4.843599 -2.004280 3.579146 1.268388 45.813095 -3.873561 -1.389719 -1.808574 2.701986 1.800678 -0.457083 -9.402043 0.858970 -23.573297 6.813488 -4.739051 -13.880275 -3.914446 -33.926699 -7.151888 -41.044130 -32.816950 8.690389 18.089552 -42.366720 -33.608003 10.823930 -2.181483 -38.234437 -2.740814 -1.111880 5.570526 -3.068406 38.575421 -5.823704 32.131298 38.637494 1.043766 -10.973734 35.646994 -27.365508 -8.743645 0.530521 -15.050949 6.540991 6.998001 -7.425145 
-0.439810 -0.137846 0.739535 174.942564 11.633359 7.984853 9.686728 3.145445 -40.756997 -7.111001 6.292643 19.467948 -6.385726 4.009441 -4.516324 8.837324 12.485825 -1.884383 -10.488465 -5.965437 -34.193596 5.113603 0.103143 17.297747 16.266055 0.007650 -3.048806 -15.715578 4.258430 -1.461481 3.716624 1.151750 42.863158 -3.284905 -1.376793 -0.010274 2.768556 1.706393 -0.797540 -7.642944 1.675823 -21.714134 6.013600 -3.880553 -12.874044 -7.646163 -31.173764 -4.688737 -42.060576 -29.376527 10.429695 17.084551 -47.540313 -30.124933 10.275113 -3.546703 -37.916527 -2.790772 -1.027513 4.810606 0.862347 36.508802 -3.618992 35.284643 35.458142 5.569076 -9.653495 42.017396 -23.568048 -8.569534 1.352859 -16.461072 6.799970 6.945011 -7.059472 
-0.435779 -0.142402 0.747043 175.129986 10.956967 4.420426 9.715020 3.130033 -34.816759 -6.950740 5.393299 16.808935 -6.829916 4.592442 -4.626919 9.859280 12.073055 -2.023205 -10.123297 -5.500866 -28.911080 5.079747 1.094715 15.033335 16.371713 0.003370 -2.678132 -15.613900 4.284528 -2.063519 2.977913 1.881962 37.213099 -2.605505 -1.161132 1.183574 2.725144 1.555675 -0.421752 -6.294070 2.858039 -20.769477 5.257528 -3.478280 -11.892745 -9.207385 -27.097334 -3.422578 -44.382307 -26.469783 12.790653 14.382704 -52.131407 -25.857603 8.795765 -3.809296 -39.383170 -3.691466 -1.187308 4.162113 3.598360 32.621232 -2.249997 39.692666 32.915549 10.366575 -8.759022 48.211375 -20.248869 -6.642036 1.645172 -19.135536 7.472178 7.030715 -7.220722 
-0.432988 -0.145544 0.755499 175.414562 10.093834 0.681563 9.695217 3.196878 -29.333046 -6.794015 4.293326 15.734465 -7.003102 5.262440 -5.466092 10.488878 12.260658 -2.381174 -9.791329 -4.972699 -24.302596 4.980369 2.365639 14.585331 16.022031 -0.122294 -3.131871 -15.071968 4.373352 -2.615421 2.262748 2.055452 32.575109 -2.232801 -0.887898 2.051103 2.550604 1.257664 -0.193957 -4.500982 3.926827 -19.698386 4.495685 -2.591148 -10.976825 -11.225071 -22.891979 -2.106373 -45.538593 -23.112420 14.193844 12.695061 -56.663905 -22.539646 7.841989 -3.936116 -40.125242 -4.148593 -1.181420 3.348635 5.776296 29.132370 -1.387024 42.595973 30.412395 14.265588 -5.824090 53.615964 -16.205309 -5.490469 1.748836 -22.031594 7.826137 6.883786 -7.163532 
